# xmcd CD database file
#
# Track frame offsets:
#	150
#	2843
#	12208
#	32139
#	42897
#	59801
#	64099
#	86768
#	107474
#	121455
#	133111
#	146346
#	155330
#	163719
#	186439
#	198002
#	215564
#	227682
#
# Disc length: 3064 seconds
#
# Revision: 0
# Processed by: cddbd v1.5.2PL0 Copyright (c) Steve Scherf et al.
# Submitted via: CDex 1.70beta2
#
DISCID=f90bf612
DTITLE=18th Street Saxophone Quintet - The Munsters Are Back
DYEAR=2004
DGENRE=Saxophone Quintet
TTITLE0=The Munsters - Theme
TTITLE1=Lady Madonna (Paul McCartney)
TTITLE2=Spain (Cick Corea)
TTITLE3=Let Us Go In Peace (John Rutter)
TTITLE4=Harlem Nocturne (Earl Hagen)
TTITLE5=The Munsters - Variation 1
TTITLE6=La Fiesta (Chick Corea)
TTITLE7=Birdland (Joe Zawinul)
TTITLE8=I Will Follow Him (Stole-Del Roma-Plante)
TTITLE9=Hymn Of Freedom (Oscar Peterson)
TTITLE10=Jamaican Marketplace (Larry Farlow)
TTITLE11=The Munsters - Variation 2
TTITLE12=Sing The Lord A New Song (E. Sherwin MacKintosh)
TTITLE13=Earth Song (Michael Jackson)
TTITLE14=Cranky (Heinrich Werkl)
TTITLE15=Mercy, Mercy (Joe Zawinul)
TTITLE16=Swing Low, Sweet Chariot (Trad.)
TTITLE17=The Munsters - Theme
EXTD=YEAR: 2004
EXTT0=
EXTT1=
EXTT2=
EXTT3=
EXTT4=
EXTT5=
EXTT6=
EXTT7=
EXTT8=
EXTT9=
EXTT10=
EXTT11=
EXTT12=
EXTT13=
EXTT14=
EXTT15=
EXTT16=
EXTT17=
PLAYORDER=
